<svg width="30.957275" height="25.001221" viewBox="0 0 30.9573 25.0012" fill="none" xmlns="http://www.w3.org/2000/svg" xmlns:xlink="http://www.w3.org/1999/xlink">
	<desc>
			Created with Pixso.
	</desc>
	<defs/>
	<path id="Vector 3" d="M14.77 1.7L12.79 3.68C12.59 3.88 12.28 3.88 12.08 3.68C11.89 3.48 11.89 3.17 12.08 2.97L14.91 0.14C15.11 -0.05 15.42 -0.05 15.62 0.14L18.45 2.97C18.65 3.17 18.65 3.48 18.45 3.68C18.25 3.88 17.94 3.88 17.74 3.68L15.77 1.7L15.77 10.86Q15.77 16.83 12.91 18.95Q12.89 18.97 12.87 18.98C11.71 19.83 9.58 20.36 6.5 20.56C4.51 20.7 3.05 20.9 2.13 21.16C1.8 21.25 1.6 21.34 1.54 21.43L1.58 21.39C1.82 21.71 2.51 22.07 3.64 22.46C6.47 23.44 9.77 23.95 13.54 23.99Q21.89 24.09 25.88 20.31C26.09 20.12 26.4 20.13 26.59 20.33C26.78 20.54 26.77 20.85 26.57 21.04C23.71 23.74 19.37 25.06 13.53 24.99Q7.7 24.93 3.31 23.41C1.99 22.95 1.14 22.48 0.78 21.99C0.47 21.59 0.46 21.2 0.74 20.83C0.94 20.56 1.31 20.35 1.86 20.2Q3.34 19.78 6.44 19.57Q10.77 19.27 12.28 18.17C13.94 16.97 14.77 14.53 14.77 10.86L14.77 1.7Z" fill="#FFFFFF" fill-opacity="1.000000" fill-rule="evenodd"/>
	<path id="Vector 4" d="M20.09 10.31C20.09 10.31 21.24 14.13 25.28 14.13C29.32 14.13 30.47 10.31 30.47 10.31" stroke="#FFFFFF" stroke-opacity="1.000000" stroke-width="1.000000"/>
	<path id="Vector 4" d="M0.47 10.31C0.47 10.31 1.63 14.13 5.67 14.13C9.7 14.13 10.86 10.31 10.86 10.31" stroke="#FFFFFF" stroke-opacity="1.000000" stroke-width="1.000000"/>
</svg>
